<svg width="1179" height="323" viewBox="0 0 1179 323" fill="none" xmlns="http://www.w3.org/2000/svg">
<g clip-path="url(#clip0_12_24)">
<path d="M688.174 309.96C688.174 313.267 688.174 316.081 688.174 319.664C686.038 319.664 684.277 319.664 682.517 319.664C670.518 319.664 658.512 319.433 646.523 319.776C641.601 319.916 640.039 318.767 640.066 313.504C640.297 267.009 640.2 220.513 640.2 174.017C640.2 141.186 640.2 108.356 640.2 75.5252C640.2 73.7007 640.2 71.8761 640.2 69.592C655.131 69.592 669.813 69.592 684.902 69.592C684.902 78.0855 684.902 86.5137 684.902 93.2885C689.455 89.4087 694.646 84.9073 699.92 80.5053C731.932 53.7833 774.765 64.4464 795.942 91.3512C809.891 109.072 815.877 129.433 816.991 151.556C817.815 167.927 816.689 184.043 812.201 199.97C801.721 237.16 766.782 259.996 728.774 253.638C714.756 251.293 702.847 244.372 692.88 234.24C691.629 232.968 690.826 231.254 689.815 229.745C689.268 230.094 688.721 230.443 688.174 230.791C688.174 257.017 688.174 283.242 688.174 309.96ZM727.633 217.986C743.639 218.155 755 211.281 761.07 196.157C769.967 173.986 770.466 151.437 763.594 128.786C760.703 119.255 754.482 111.763 745.432 107.18C726.203 97.4413 702.348 106.752 694.017 127.821C685.718 148.806 685.32 170.518 692.462 191.803C697.792 207.689 709.622 216.68 727.633 217.986Z" fill="black"/>
<path d="M365.966 67.9999C365.966 128.958 365.966 189.417 365.966 250.268C350.967 250.268 336.262 250.268 321.171 250.268C321.171 241.692 321.171 233.264 321.171 223.524C317.706 227.689 315.19 231.052 312.333 234.094C290.691 257.145 253.312 261.745 225.228 242.189C209.668 231.354 199.864 216.245 194.528 198.494C186.745 172.597 186.25 146.249 194.015 120.262C201.299 95.8842 215.599 77.0532 240.832 69.0518C268.136 60.3939 292.755 65.0704 313.479 85.777C314.65 86.9479 315.622 88.3197 317.651 90.7571C317.651 59.6876 317.651 30.2085 317.651 0.295898C333.87 0.295898 349.572 0.295898 365.966 0.295898C365.966 22.6527 365.966 45.0763 365.966 67.9999ZM242.757 129.328C241.627 134.005 240.129 138.629 239.431 143.369C236.879 160.719 236.869 178.018 243.974 194.408C249.276 206.641 258.759 214.527 272.316 216.04C294.938 218.566 309.183 204.228 314.658 185.774C319.648 168.954 319.754 151.526 315.774 134.393C310.179 110.312 290.335 97.5523 267.783 102.98C254.116 106.269 247.134 116.06 242.757 129.328Z" fill="black"/>
<path d="M878.947 129.07C877.818 139.027 875.993 148.572 875.861 158.141C875.46 187.13 875.625 216.129 875.812 245.123C875.841 249.475 874.755 250.862 870.264 250.769C856.292 250.479 842.31 250.663 827.891 250.663C827.891 167.066 827.891 83.8564 827.891 0.252686C843.572 0.252686 859.29 0.252686 875.589 0.252686C875.589 30.2952 875.589 60.3447 875.589 91.634C879.44 87.967 882.361 85.1404 885.331 82.366C908.944 60.3036 945.108 60.7555 968.492 75.0067C983.456 84.1266 988.647 98.807 990.833 114.925C992.015 123.642 992.525 132.508 992.573 141.311C992.765 175.804 992.581 210.298 992.74 244.792C992.761 249.177 991.89 250.923 987.036 250.783C974.548 250.423 962.04 250.49 949.548 250.758C945.284 250.85 944.287 249.414 944.29 245.355C944.322 208.697 944.27 172.037 943.913 135.381C943.857 129.645 942.607 123.801 941.096 118.227C938.762 109.614 932.825 104.341 923.976 102.719C914.803 101.038 905.739 101.514 896.986 104.961C886.213 109.203 881.985 118.473 878.947 129.07Z" fill="black"/>
<path d="M1005.67 307.427C1004.74 299.565 1003.91 292.147 1003 284.124C1007.54 284.554 1011.77 284.794 1015.95 285.376C1035.32 288.073 1047.17 281.355 1055.59 263.53C1059.25 255.791 1060.02 248.955 1056.71 240.442C1035.32 185.431 1014.58 130.162 993.634 74.9745C993.002 73.3104 992.457 71.6136 991.593 69.1323C997.347 69.1323 1002.43 69.1323 1007.51 69.1323C1017.51 69.1323 1027.51 69.3101 1037.5 69.0411C1041.26 68.9396 1042.93 70.0199 1044.16 73.738C1057 112.747 1070.06 151.684 1083.07 190.637C1083.79 192.8 1084.62 194.929 1085.91 198.515C1086.95 195.611 1087.56 194.013 1088.09 192.387C1100.99 152.875 1113.95 113.381 1126.67 73.8117C1127.88 70.0682 1129.52 68.9936 1133.28 69.0473C1147.93 69.2561 1162.58 69.1323 1178.03 69.1323C1174.93 77.6496 1172 85.6873 1169.07 93.7228C1147.98 151.513 1126.97 209.336 1105.72 267.068C1101.08 279.684 1096.38 292.395 1087.7 303.036C1077.9 315.028 1065.05 321.888 1049.84 322.741C1036.81 323.471 1023.67 322.342 1010.59 321.732C1009.31 321.673 1007.41 319.667 1007.05 318.251C1006.22 314.891 1006.14 311.343 1005.67 307.427Z" fill="black"/>
<path d="M554.913 122.123C566.774 155.346 564.106 186.898 544.458 215.868C529.121 238.483 507.314 251.528 479.662 254.141C459.637 256.034 440.367 253.05 422.36 244.356C394.738 231.019 380.566 207.677 376.14 178.074C373.014 157.171 374.233 136.58 383.415 117.042C395.728 90.8405 415.723 73.954 444.104 67.5892C463.836 63.1641 483.534 63.7455 502.624 70.6599C527.65 79.7245 544.872 97.0932 554.913 122.123ZM510.015 138.667C509.351 136.612 508.78 134.521 508.007 132.508C501.214 114.818 486.185 104.23 467.844 104.165C450.677 104.105 434.781 115.041 428.561 132.278C421.9 150.738 421.932 169.585 428.739 188.005C435.13 205.3 451 215.65 468.973 215.284C487.186 214.914 502.108 204.164 508.266 186.662C513.718 171.167 513.657 155.374 510.015 138.667Z" fill="black"/>
<path d="M620.001 50.9999C620.001 117.594 620.001 183.689 620.001 250.064C603.875 250.064 588.291 250.064 572.364 250.064C572.364 166.765 572.364 83.5771 572.364 0.125244C588.151 0.125244 603.735 0.125244 620.001 0.125244C620.001 16.9776 620.001 33.7388 620.001 50.9999Z" fill="black"/>
</g>
<path d="M1.60447 86.9849C2.0603 85.1112 3.35704 84.6061 4.7256 84.3863C6.59091 84.0867 8.478 83.9603 10.3542 83.7424C15.8074 83.1089 20.1777 80.2473 23.6707 75.5872C26.9088 71.2672 29.8109 66.6422 33.3643 62.6055C40.0001 55.0672 48.0131 50.0965 56.7967 46.5398C67.9394 42.0277 79.4297 39.6652 91.2921 39.3989C104.105 39.1113 116.598 41.0094 128.722 45.7092C129.72 46.0959 130.423 45.6944 131.239 45.2791C145.552 37.9893 160.501 33.392 176.211 32.1297C179.347 31.8777 182.507 31.9313 185.593 32.8508C189.657 34.0614 191.169 36.9036 190.119 41.4862C189.153 45.7019 187.105 49.3576 185.233 53.0983C183.231 57.0968 181.055 61.0054 179.94 65.4717C178.989 69.2807 179.754 72.2936 182.659 74.97C198.577 89.6347 212.426 106.414 223.302 126.122C229.722 137.757 234.659 150.109 237.046 163.604C238.383 171.165 239.034 178.826 239.46 186.517C239.864 193.806 239.88 201.088 239.435 208.368C238.635 221.451 236.716 234.274 232.186 246.601C230.956 247.155 231.204 245.96 231.076 245.384C230.023 240.649 229.08 235.885 227.903 231.183C224.41 217.239 220.2 203.589 214.949 190.341C210.958 180.27 206.39 170.562 200.971 161.369C195.705 152.436 189.31 144.626 182.228 137.461C174.169 129.306 165.389 122.311 155.959 116.316C153.495 114.75 150.871 113.524 148.306 111.881C143.675 109.45 137.001 111.821 134.888 119.587C133.847 123.414 133.254 127.328 133.028 131.356C132.656 137.974 133.277 144.479 134.166 150.983C134.26 151.675 134.451 152.48 133.778 152.899C133.202 153.257 132.666 152.785 132.201 152.406C122.653 144.644 114.103 135.771 108.059 124.265C102.985 114.604 100.196 104.176 100.426 92.8602C100.446 91.8802 100.48 90.9056 100.635 90.1057C100.37 92.2513 99.8594 94.5089 99.6353 96.8358C99.5231 98.0012 99.6419 99.3889 98.2484 100.056C97.0854 100.034 96.245 99.3571 95.3092 98.9947C87.3918 95.9287 79.2455 94.0092 70.9292 93.0424C64.2336 92.264 57.5482 92.9198 50.867 93.5421C46.3804 93.9599 41.9042 94.5037 37.405 94.7859C34.8934 94.9434 32.3879 95.0889 29.872 95.1048C20.8592 95.1617 12.3148 92.8584 4.11876 88.7651C3.63993 88.5259 3.15782 88.2953 2.54944 88.0044C2.0635 87.7947 1.78346 87.5445 1.60447 86.9849Z" fill="#39B6FF"/>
<path d="M148.286 111.628C154.885 114.805 160.954 118.868 166.817 123.322C175.571 129.971 183.616 137.567 190.846 146.231C198.245 155.098 204.086 165.176 209.116 175.874C219.546 198.054 226.715 221.552 231.572 245.979C231.629 246.266 231.639 246.564 232.047 246.711C232.243 248.662 233.783 249.773 234.333 251.58C234.425 252.782 234.897 253.718 235.275 254.679C238.578 263.087 241.571 271.622 243.673 280.519C244.334 283.319 244.678 286.161 244.59 289.072C244.46 293.354 242.473 295.108 238.802 293.882C236.19 293.01 233.638 291.909 231 291.119C222.619 288.609 214.12 286.847 205.466 286.036C201.599 285.673 197.737 285.371 193.851 285.345C188.561 285.309 183.41 286.23 178.289 287.608C173.135 288.994 167.987 290.408 162.843 291.841C162.278 291.998 161.739 292.215 161.115 292.604C159.438 291.069 159.962 289.074 160.298 287.244C160.765 284.695 162.3 282.745 163.804 280.883C168.229 275.41 173.572 271.192 179.049 267.18C185.97 262.111 193.193 257.621 200.439 253.175C201.994 252.221 203.554 251.277 205.085 250.277C210.768 246.568 212.459 241.945 210.93 234.73C210.226 231.407 208.889 228.475 207.023 225.673C207.047 224.797 206.648 224.22 206.325 223.625C200.113 212.176 191.586 203.673 180.604 198.33C171.225 193.767 162.488 187.969 154.188 181.302C148.207 176.497 142.701 171.069 137.239 165.558C128.693 156.936 119.66 148.979 110.251 141.563C99.4653 133.063 88.2675 125.335 76.5707 118.49C66.2682 112.461 55.6703 107.236 44.6615 103.089C38.5413 100.783 32.3179 98.7913 25.8744 98.0064C22.6462 97.6132 19.3966 97.4334 16.199 96.7535C11.9756 95.8555 7.96949 94.3027 4.5336 91.3266C3.44217 90.3812 1.93937 89.5954 2.18477 87.4463C6.68037 89.4935 11.1586 91.475 15.8672 92.7736C23.9309 94.9976 32.0787 94.8266 40.2652 94.0909C46.7959 93.504 53.31 92.7339 59.8603 92.3549C72.1601 91.6433 83.9604 94.281 95.5565 98.5228C96.4351 98.8442 97.2638 99.3373 98.2164 99.8087C99.6066 99.989 99.3552 101.147 99.3476 101.988C99.3172 105.347 99.4668 108.68 99.9743 111.999C101.546 122.274 105.679 131.07 111.957 138.71C119.016 147.301 127.575 153.407 137.008 158.119C138.352 158.791 138.416 158.763 138.237 157.098C137.584 151.024 137.123 144.94 137.281 138.814C137.405 133.981 137.835 129.199 139.16 124.562C139.91 121.942 141.06 119.6 142.82 117.658C144.614 115.678 146.356 113.639 148.286 111.628Z" fill="#E7F2F1"/>
<path d="M2.19232 87.275C2.1702 88.1877 2.57289 88.7577 3.08134 89.3206C6.81209 93.4509 11.4822 95.3634 16.5007 96.3291C23.4699 97.6701 30.5803 97.8827 37.4454 100.156C44.7278 102.568 51.8623 105.373 58.864 108.645C64.0369 111.062 69.1465 113.644 74.1176 116.53C80.6192 120.305 87.022 124.284 93.2849 128.558C102.177 134.627 110.744 141.212 119.051 148.229C123.925 152.347 128.718 156.588 133.289 161.132C141.961 169.754 150.527 178.514 160.355 185.535C167.12 190.367 174.124 194.647 181.479 198.267C189.962 202.442 197.015 208.771 202.731 216.985C204.314 219.259 205.691 221.666 207.045 224.1C207.264 224.493 207.946 224.966 207.079 225.548C202.326 219.879 196.606 215.81 190.699 212.022C182.879 207.008 174.815 202.509 166.864 197.773C158.114 192.561 149.866 186.503 142.306 179.314C136.731 174.012 131.264 168.565 125.699 163.25C120.654 158.43 115.526 153.72 110.46 148.927C102.587 141.479 94.4113 134.491 85.7308 128.258C82.249 125.758 78.6979 123.321 74.9391 121.463C67.0238 117.55 58.7972 114.55 50.4939 111.802C41.6361 108.87 32.6704 106.43 23.7112 103.948C17.2337 102.153 10.6408 100.87 4.28571 98.5363C0.146889 97.0163 -1.40956 90.67 1.48014 86.8899C1.75941 86.961 1.9465 87.0866 2.19232 87.275Z" fill="#D7EBE9"/>
<path d="M161.039 292.761C160.994 292.085 161.094 291.729 161.728 291.563C169.137 289.622 176.492 287.375 183.953 285.737C189.434 284.534 195.042 284.656 200.65 285.141C205.016 285.518 209.366 285.935 213.698 286.628C220.36 287.693 226.938 289.19 233.379 291.389C235.276 292.037 237.133 292.832 239.031 293.473C242.3 294.576 244.024 293.044 244.164 289.237C244.327 284.818 243.36 280.638 242.213 276.507C240.115 268.947 237.591 261.562 234.649 254.358C234.336 253.591 233.858 252.803 234.288 251.778C237.078 255.941 239.38 260.475 241.679 264.996C244.437 270.42 247.187 275.869 249.307 281.664C251.124 286.63 252.976 291.592 253.553 296.996C253.764 298.971 253.263 300.765 252.529 302.507C252.071 303.594 251.247 303.882 250.217 303.959C246.422 304.245 242.875 302.959 239.325 301.817C230.732 299.054 222.216 295.958 213.398 294.186C210.28 293.56 207.13 293.123 203.945 292.927C201.491 292.776 199.036 292.515 196.589 292.668C191.495 292.986 186.402 293.306 181.322 293.952C178.172 294.352 174.988 294.592 171.823 294.889C168.973 295.155 166.222 295.05 163.438 294.466C162.437 294.255 161.697 293.725 161.039 292.761Z" fill="#D7EBE9"/>
<path d="M148.322 111.473C148.371 112.388 147.76 112.752 147.336 113.243C145.515 115.354 143.517 117.301 141.876 119.573C139.612 122.706 138.931 126.614 138.33 130.49C137.518 135.718 137.529 141.008 137.752 146.266C137.922 150.272 138.184 154.301 138.851 158.265C138.909 158.611 139.054 159 138.801 159.267C138.445 159.644 138.122 159.222 137.813 159.074C131.048 155.834 124.689 151.769 118.925 146.663C112.601 141.06 107.266 134.423 103.662 126.246C101.289 120.863 99.7691 115.188 99.2091 109.164C98.9797 106.695 99.0628 104.25 98.9581 101.796C98.9313 101.168 99.1015 100.479 98.4266 99.9383C98.869 99.6065 98.9847 99.1224 99.055 98.4796C99.4035 95.2889 99.7286 92.0874 100.828 88.5183C100.828 90.3702 100.832 91.7175 100.828 93.0648C100.772 108.839 105.939 122.367 114.927 134.249C120.077 141.056 126.025 146.881 132.468 152.092C132.723 152.298 132.986 152.493 133.258 152.669C133.385 152.751 133.542 152.777 133.996 152.939C133.707 150.677 133.406 148.595 133.181 146.504C132.215 137.537 132.04 128.61 134.388 119.831C135.995 113.823 139.914 110.423 145.05 110.555C146.166 110.584 147.219 110.91 148.322 111.473Z" fill="#D4E9E8"/>
<path d="M65.2791 74.787C63.8411 77.3733 61.9351 78.3048 59.8097 77.5568C57.8526 76.8681 56.475 74.6974 56.5831 72.4727C56.6966 70.1367 58.2668 68.1043 60.347 67.6705C63.8261 66.9451 66.7726 70.9495 65.2791 74.787Z" fill="#553C2C"/>
<defs>
<clipPath id="clip0_12_24">
<rect width="991" height="323" fill="white" transform="translate(188)"/>
</clipPath>
</defs>
</svg>
